%TF.GenerationSoftware,KiCad,Pcbnew,(5.99.0-10650-gfdcc49d3ee)*%
%TF.CreationDate,2021-06-18T14:28:24+02:00*%
%TF.ProjectId,lipo_parallel_board,6c69706f-5f70-4617-9261-6c6c656c5f62,rev?*%
%TF.SameCoordinates,Original*%
%TF.FileFunction,Legend,Top*%
%TF.FilePolarity,Positive*%
%FSLAX46Y46*%
G04 Gerber Fmt 4.6, Leading zero omitted, Abs format (unit mm)*
G04 Created by KiCad (PCBNEW (5.99.0-10650-gfdcc49d3ee)) date 2021-06-18 14:28:24*
%MOMM*%
%LPD*%
G01*
G04 APERTURE LIST*
%ADD10C,0.150000*%
%ADD11C,0.120000*%
G04 APERTURE END LIST*
D10*
%TO.C,J2*%
X156718666Y-112602380D02*
X156718666Y-113316666D01*
X156671047Y-113459523D01*
X156575809Y-113554761D01*
X156432952Y-113602380D01*
X156337714Y-113602380D01*
X157147238Y-112697619D02*
X157194857Y-112650000D01*
X157290095Y-112602380D01*
X157528190Y-112602380D01*
X157623428Y-112650000D01*
X157671047Y-112697619D01*
X157718666Y-112792857D01*
X157718666Y-112888095D01*
X157671047Y-113030952D01*
X157099619Y-113602380D01*
X157718666Y-113602380D01*
%TO.C,J3*%
X99916666Y-60299780D02*
X99916666Y-61014066D01*
X99869047Y-61156923D01*
X99773809Y-61252161D01*
X99630952Y-61299780D01*
X99535714Y-61299780D01*
X100297619Y-60299780D02*
X100916666Y-60299780D01*
X100583333Y-60680733D01*
X100726190Y-60680733D01*
X100821428Y-60728352D01*
X100869047Y-60775971D01*
X100916666Y-60871209D01*
X100916666Y-61109304D01*
X100869047Y-61204542D01*
X100821428Y-61252161D01*
X100726190Y-61299780D01*
X100440476Y-61299780D01*
X100345238Y-61252161D01*
X100297619Y-61204542D01*
%TO.C,J15*%
X138896876Y-88802380D02*
X138896876Y-89516666D01*
X138849257Y-89659523D01*
X138754019Y-89754761D01*
X138611161Y-89802380D01*
X138515923Y-89802380D01*
X139896876Y-89802380D02*
X139325447Y-89802380D01*
X139611161Y-89802380D02*
X139611161Y-88802380D01*
X139515923Y-88945238D01*
X139420685Y-89040476D01*
X139325447Y-89088095D01*
X140801638Y-88802380D02*
X140325447Y-88802380D01*
X140277828Y-89278571D01*
X140325447Y-89230952D01*
X140420685Y-89183333D01*
X140658780Y-89183333D01*
X140754019Y-89230952D01*
X140801638Y-89278571D01*
X140849257Y-89373809D01*
X140849257Y-89611904D01*
X140801638Y-89707142D01*
X140754019Y-89754761D01*
X140658780Y-89802380D01*
X140420685Y-89802380D01*
X140325447Y-89754761D01*
X140277828Y-89707142D01*
%TO.C,J25*%
X121740476Y-62327380D02*
X121740476Y-63041666D01*
X121692857Y-63184523D01*
X121597619Y-63279761D01*
X121454761Y-63327380D01*
X121359523Y-63327380D01*
X122169047Y-62422619D02*
X122216666Y-62375000D01*
X122311904Y-62327380D01*
X122550000Y-62327380D01*
X122645238Y-62375000D01*
X122692857Y-62422619D01*
X122740476Y-62517857D01*
X122740476Y-62613095D01*
X122692857Y-62755952D01*
X122121428Y-63327380D01*
X122740476Y-63327380D01*
X123645238Y-62327380D02*
X123169047Y-62327380D01*
X123121428Y-62803571D01*
X123169047Y-62755952D01*
X123264285Y-62708333D01*
X123502380Y-62708333D01*
X123597619Y-62755952D01*
X123645238Y-62803571D01*
X123692857Y-62898809D01*
X123692857Y-63136904D01*
X123645238Y-63232142D01*
X123597619Y-63279761D01*
X123502380Y-63327380D01*
X123264285Y-63327380D01*
X123169047Y-63279761D01*
X123121428Y-63232142D01*
%TO.C,J30*%
X158742476Y-93652380D02*
X158742476Y-94366666D01*
X158694857Y-94509523D01*
X158599619Y-94604761D01*
X158456761Y-94652380D01*
X158361523Y-94652380D01*
X159123428Y-93652380D02*
X159742476Y-93652380D01*
X159409142Y-94033333D01*
X159552000Y-94033333D01*
X159647238Y-94080952D01*
X159694857Y-94128571D01*
X159742476Y-94223809D01*
X159742476Y-94461904D01*
X159694857Y-94557142D01*
X159647238Y-94604761D01*
X159552000Y-94652380D01*
X159266285Y-94652380D01*
X159171047Y-94604761D01*
X159123428Y-94557142D01*
X160361523Y-93652380D02*
X160456761Y-93652380D01*
X160552000Y-93700000D01*
X160599619Y-93747619D01*
X160647238Y-93842857D01*
X160694857Y-94033333D01*
X160694857Y-94271428D01*
X160647238Y-94461904D01*
X160599619Y-94557142D01*
X160552000Y-94604761D01*
X160456761Y-94652380D01*
X160361523Y-94652380D01*
X160266285Y-94604761D01*
X160218666Y-94557142D01*
X160171047Y-94461904D01*
X160123428Y-94271428D01*
X160123428Y-94033333D01*
X160171047Y-93842857D01*
X160218666Y-93747619D01*
X160266285Y-93700000D01*
X160361523Y-93652380D01*
%TO.C,J22*%
X161242476Y-126852380D02*
X161242476Y-127566666D01*
X161194857Y-127709523D01*
X161099619Y-127804761D01*
X160956761Y-127852380D01*
X160861523Y-127852380D01*
X161671047Y-126947619D02*
X161718666Y-126900000D01*
X161813904Y-126852380D01*
X162052000Y-126852380D01*
X162147238Y-126900000D01*
X162194857Y-126947619D01*
X162242476Y-127042857D01*
X162242476Y-127138095D01*
X162194857Y-127280952D01*
X161623428Y-127852380D01*
X162242476Y-127852380D01*
X162623428Y-126947619D02*
X162671047Y-126900000D01*
X162766285Y-126852380D01*
X163004380Y-126852380D01*
X163099619Y-126900000D01*
X163147238Y-126947619D01*
X163194857Y-127042857D01*
X163194857Y-127138095D01*
X163147238Y-127280952D01*
X162575809Y-127852380D01*
X163194857Y-127852380D01*
%TO.C,J31*%
X104440476Y-100702380D02*
X104440476Y-101416666D01*
X104392857Y-101559523D01*
X104297619Y-101654761D01*
X104154761Y-101702380D01*
X104059523Y-101702380D01*
X104821428Y-100702380D02*
X105440476Y-100702380D01*
X105107142Y-101083333D01*
X105250000Y-101083333D01*
X105345238Y-101130952D01*
X105392857Y-101178571D01*
X105440476Y-101273809D01*
X105440476Y-101511904D01*
X105392857Y-101607142D01*
X105345238Y-101654761D01*
X105250000Y-101702380D01*
X104964285Y-101702380D01*
X104869047Y-101654761D01*
X104821428Y-101607142D01*
X106392857Y-101702380D02*
X105821428Y-101702380D01*
X106107142Y-101702380D02*
X106107142Y-100702380D01*
X106011904Y-100845238D01*
X105916666Y-100940476D01*
X105821428Y-100988095D01*
%TO.C,J8*%
X141386466Y-73077380D02*
X141386466Y-73791666D01*
X141338847Y-73934523D01*
X141243609Y-74029761D01*
X141100752Y-74077380D01*
X141005514Y-74077380D01*
X142005514Y-73505952D02*
X141910276Y-73458333D01*
X141862657Y-73410714D01*
X141815038Y-73315476D01*
X141815038Y-73267857D01*
X141862657Y-73172619D01*
X141910276Y-73125000D01*
X142005514Y-73077380D01*
X142195990Y-73077380D01*
X142291228Y-73125000D01*
X142338847Y-73172619D01*
X142386466Y-73267857D01*
X142386466Y-73315476D01*
X142338847Y-73410714D01*
X142291228Y-73458333D01*
X142195990Y-73505952D01*
X142005514Y-73505952D01*
X141910276Y-73553571D01*
X141862657Y-73601190D01*
X141815038Y-73696428D01*
X141815038Y-73886904D01*
X141862657Y-73982142D01*
X141910276Y-74029761D01*
X142005514Y-74077380D01*
X142195990Y-74077380D01*
X142291228Y-74029761D01*
X142338847Y-73982142D01*
X142386466Y-73886904D01*
X142386466Y-73696428D01*
X142338847Y-73601190D01*
X142291228Y-73553571D01*
X142195990Y-73505952D01*
X134648371Y-77732142D02*
X135791228Y-77732142D01*
X147648371Y-77732142D02*
X148791228Y-77732142D01*
X148219800Y-78303571D02*
X148219800Y-77160714D01*
%TO.C,J26*%
X99440476Y-112602380D02*
X99440476Y-113316666D01*
X99392857Y-113459523D01*
X99297619Y-113554761D01*
X99154761Y-113602380D01*
X99059523Y-113602380D01*
X99869047Y-112697619D02*
X99916666Y-112650000D01*
X100011904Y-112602380D01*
X100250000Y-112602380D01*
X100345238Y-112650000D01*
X100392857Y-112697619D01*
X100440476Y-112792857D01*
X100440476Y-112888095D01*
X100392857Y-113030952D01*
X99821428Y-113602380D01*
X100440476Y-113602380D01*
X101297619Y-112602380D02*
X101107142Y-112602380D01*
X101011904Y-112650000D01*
X100964285Y-112697619D01*
X100869047Y-112840476D01*
X100821428Y-113030952D01*
X100821428Y-113411904D01*
X100869047Y-113507142D01*
X100916666Y-113554761D01*
X101011904Y-113602380D01*
X101202380Y-113602380D01*
X101297619Y-113554761D01*
X101345238Y-113507142D01*
X101392857Y-113411904D01*
X101392857Y-113173809D01*
X101345238Y-113078571D01*
X101297619Y-113030952D01*
X101202380Y-112983333D01*
X101011904Y-112983333D01*
X100916666Y-113030952D01*
X100869047Y-113078571D01*
X100821428Y-113173809D01*
%TO.C,H1*%
X97238095Y-135252380D02*
X97238095Y-134252380D01*
X97238095Y-134728571D02*
X97809523Y-134728571D01*
X97809523Y-135252380D02*
X97809523Y-134252380D01*
X98809523Y-135252380D02*
X98238095Y-135252380D01*
X98523809Y-135252380D02*
X98523809Y-134252380D01*
X98428571Y-134395238D01*
X98333333Y-134490476D01*
X98238095Y-134538095D01*
%TO.C,J9*%
X139437466Y-114402380D02*
X139437466Y-115116666D01*
X139389847Y-115259523D01*
X139294609Y-115354761D01*
X139151752Y-115402380D01*
X139056514Y-115402380D01*
X139961276Y-115402380D02*
X140151752Y-115402380D01*
X140246990Y-115354761D01*
X140294609Y-115307142D01*
X140389847Y-115164285D01*
X140437466Y-114973809D01*
X140437466Y-114592857D01*
X140389847Y-114497619D01*
X140342228Y-114450000D01*
X140246990Y-114402380D01*
X140056514Y-114402380D01*
X139961276Y-114450000D01*
X139913657Y-114497619D01*
X139866038Y-114592857D01*
X139866038Y-114830952D01*
X139913657Y-114926190D01*
X139961276Y-114973809D01*
X140056514Y-115021428D01*
X140246990Y-115021428D01*
X140342228Y-114973809D01*
X140389847Y-114926190D01*
X140437466Y-114830952D01*
%TO.C,H2*%
X168238095Y-135252380D02*
X168238095Y-134252380D01*
X168238095Y-134728571D02*
X168809523Y-134728571D01*
X168809523Y-135252380D02*
X168809523Y-134252380D01*
X169238095Y-134347619D02*
X169285714Y-134300000D01*
X169380952Y-134252380D01*
X169619047Y-134252380D01*
X169714285Y-134300000D01*
X169761904Y-134347619D01*
X169809523Y-134442857D01*
X169809523Y-134538095D01*
X169761904Y-134680952D01*
X169190476Y-135252380D01*
X169809523Y-135252380D01*
%TO.C,J28*%
X131640476Y-50277380D02*
X131640476Y-50991666D01*
X131592857Y-51134523D01*
X131497619Y-51229761D01*
X131354761Y-51277380D01*
X131259523Y-51277380D01*
X132069047Y-50372619D02*
X132116666Y-50325000D01*
X132211904Y-50277380D01*
X132450000Y-50277380D01*
X132545238Y-50325000D01*
X132592857Y-50372619D01*
X132640476Y-50467857D01*
X132640476Y-50563095D01*
X132592857Y-50705952D01*
X132021428Y-51277380D01*
X132640476Y-51277380D01*
X133211904Y-50705952D02*
X133116666Y-50658333D01*
X133069047Y-50610714D01*
X133021428Y-50515476D01*
X133021428Y-50467857D01*
X133069047Y-50372619D01*
X133116666Y-50325000D01*
X133211904Y-50277380D01*
X133402380Y-50277380D01*
X133497619Y-50325000D01*
X133545238Y-50372619D01*
X133592857Y-50467857D01*
X133592857Y-50515476D01*
X133545238Y-50610714D01*
X133497619Y-50658333D01*
X133402380Y-50705952D01*
X133211904Y-50705952D01*
X133116666Y-50753571D01*
X133069047Y-50801190D01*
X133021428Y-50896428D01*
X133021428Y-51086904D01*
X133069047Y-51182142D01*
X133116666Y-51229761D01*
X133211904Y-51277380D01*
X133402380Y-51277380D01*
X133497619Y-51229761D01*
X133545238Y-51182142D01*
X133592857Y-51086904D01*
X133592857Y-50896428D01*
X133545238Y-50801190D01*
X133497619Y-50753571D01*
X133402380Y-50705952D01*
%TO.C,J19*%
X138260276Y-62327380D02*
X138260276Y-63041666D01*
X138212657Y-63184523D01*
X138117419Y-63279761D01*
X137974561Y-63327380D01*
X137879323Y-63327380D01*
X139260276Y-63327380D02*
X138688847Y-63327380D01*
X138974561Y-63327380D02*
X138974561Y-62327380D01*
X138879323Y-62470238D01*
X138784085Y-62565476D01*
X138688847Y-62613095D01*
X139736466Y-63327380D02*
X139926942Y-63327380D01*
X140022180Y-63279761D01*
X140069800Y-63232142D01*
X140165038Y-63089285D01*
X140212657Y-62898809D01*
X140212657Y-62517857D01*
X140165038Y-62422619D01*
X140117419Y-62375000D01*
X140022180Y-62327380D01*
X139831704Y-62327380D01*
X139736466Y-62375000D01*
X139688847Y-62422619D01*
X139641228Y-62517857D01*
X139641228Y-62755952D01*
X139688847Y-62851190D01*
X139736466Y-62898809D01*
X139831704Y-62946428D01*
X140022180Y-62946428D01*
X140117419Y-62898809D01*
X140165038Y-62851190D01*
X140212657Y-62755952D01*
%TO.C,J27*%
X99440476Y-86602380D02*
X99440476Y-87316666D01*
X99392857Y-87459523D01*
X99297619Y-87554761D01*
X99154761Y-87602380D01*
X99059523Y-87602380D01*
X99869047Y-86697619D02*
X99916666Y-86650000D01*
X100011904Y-86602380D01*
X100250000Y-86602380D01*
X100345238Y-86650000D01*
X100392857Y-86697619D01*
X100440476Y-86792857D01*
X100440476Y-86888095D01*
X100392857Y-87030952D01*
X99821428Y-87602380D01*
X100440476Y-87602380D01*
X100773809Y-86602380D02*
X101440476Y-86602380D01*
X101011904Y-87602380D01*
%TO.C,J18*%
X124390476Y-73077380D02*
X124390476Y-73791666D01*
X124342857Y-73934523D01*
X124247619Y-74029761D01*
X124104761Y-74077380D01*
X124009523Y-74077380D01*
X125390476Y-74077380D02*
X124819047Y-74077380D01*
X125104761Y-74077380D02*
X125104761Y-73077380D01*
X125009523Y-73220238D01*
X124914285Y-73315476D01*
X124819047Y-73363095D01*
X125961904Y-73505952D02*
X125866666Y-73458333D01*
X125819047Y-73410714D01*
X125771428Y-73315476D01*
X125771428Y-73267857D01*
X125819047Y-73172619D01*
X125866666Y-73125000D01*
X125961904Y-73077380D01*
X126152380Y-73077380D01*
X126247619Y-73125000D01*
X126295238Y-73172619D01*
X126342857Y-73267857D01*
X126342857Y-73315476D01*
X126295238Y-73410714D01*
X126247619Y-73458333D01*
X126152380Y-73505952D01*
X125961904Y-73505952D01*
X125866666Y-73553571D01*
X125819047Y-73601190D01*
X125771428Y-73696428D01*
X125771428Y-73886904D01*
X125819047Y-73982142D01*
X125866666Y-74029761D01*
X125961904Y-74077380D01*
X126152380Y-74077380D01*
X126247619Y-74029761D01*
X126295238Y-73982142D01*
X126342857Y-73886904D01*
X126342857Y-73696428D01*
X126295238Y-73601190D01*
X126247619Y-73553571D01*
X126152380Y-73505952D01*
X131128571Y-77732142D02*
X132271428Y-77732142D01*
X131700000Y-78303571D02*
X131700000Y-77160714D01*
X118128571Y-77732142D02*
X119271428Y-77732142D01*
%TO.C,J23*%
X161242476Y-74676180D02*
X161242476Y-75390466D01*
X161194857Y-75533323D01*
X161099619Y-75628561D01*
X160956761Y-75676180D01*
X160861523Y-75676180D01*
X161671047Y-74771419D02*
X161718666Y-74723800D01*
X161813904Y-74676180D01*
X162052000Y-74676180D01*
X162147238Y-74723800D01*
X162194857Y-74771419D01*
X162242476Y-74866657D01*
X162242476Y-74961895D01*
X162194857Y-75104752D01*
X161623428Y-75676180D01*
X162242476Y-75676180D01*
X162575809Y-74676180D02*
X163194857Y-74676180D01*
X162861523Y-75057133D01*
X163004380Y-75057133D01*
X163099619Y-75104752D01*
X163147238Y-75152371D01*
X163194857Y-75247609D01*
X163194857Y-75485704D01*
X163147238Y-75580942D01*
X163099619Y-75628561D01*
X163004380Y-75676180D01*
X162718666Y-75676180D01*
X162623428Y-75628561D01*
X162575809Y-75580942D01*
%TO.C,J16*%
X158742476Y-67538780D02*
X158742476Y-68253066D01*
X158694857Y-68395923D01*
X158599619Y-68491161D01*
X158456761Y-68538780D01*
X158361523Y-68538780D01*
X159742476Y-68538780D02*
X159171047Y-68538780D01*
X159456761Y-68538780D02*
X159456761Y-67538780D01*
X159361523Y-67681638D01*
X159266285Y-67776876D01*
X159171047Y-67824495D01*
X160599619Y-67538780D02*
X160409142Y-67538780D01*
X160313904Y-67586400D01*
X160266285Y-67634019D01*
X160171047Y-67776876D01*
X160123428Y-67967352D01*
X160123428Y-68348304D01*
X160171047Y-68443542D01*
X160218666Y-68491161D01*
X160313904Y-68538780D01*
X160504380Y-68538780D01*
X160599619Y-68491161D01*
X160647238Y-68443542D01*
X160694857Y-68348304D01*
X160694857Y-68110209D01*
X160647238Y-68014971D01*
X160599619Y-67967352D01*
X160504380Y-67919733D01*
X160313904Y-67919733D01*
X160218666Y-67967352D01*
X160171047Y-68014971D01*
X160123428Y-68110209D01*
%TO.C,H3*%
X97238095Y-41252380D02*
X97238095Y-40252380D01*
X97238095Y-40728571D02*
X97809523Y-40728571D01*
X97809523Y-41252380D02*
X97809523Y-40252380D01*
X98190476Y-40252380D02*
X98809523Y-40252380D01*
X98476190Y-40633333D01*
X98619047Y-40633333D01*
X98714285Y-40680952D01*
X98761904Y-40728571D01*
X98809523Y-40823809D01*
X98809523Y-41061904D01*
X98761904Y-41157142D01*
X98714285Y-41204761D01*
X98619047Y-41252380D01*
X98333333Y-41252380D01*
X98238095Y-41204761D01*
X98190476Y-41157142D01*
%TO.C,J4*%
X159218666Y-119727380D02*
X159218666Y-120441666D01*
X159171047Y-120584523D01*
X159075809Y-120679761D01*
X158932952Y-120727380D01*
X158837714Y-120727380D01*
X160123428Y-120060714D02*
X160123428Y-120727380D01*
X159885333Y-119679761D02*
X159647238Y-120394047D01*
X160266285Y-120394047D01*
%TO.C,J32*%
X161242476Y-100702380D02*
X161242476Y-101416666D01*
X161194857Y-101559523D01*
X161099619Y-101654761D01*
X160956761Y-101702380D01*
X160861523Y-101702380D01*
X161623428Y-100702380D02*
X162242476Y-100702380D01*
X161909142Y-101083333D01*
X162052000Y-101083333D01*
X162147238Y-101130952D01*
X162194857Y-101178571D01*
X162242476Y-101273809D01*
X162242476Y-101511904D01*
X162194857Y-101607142D01*
X162147238Y-101654761D01*
X162052000Y-101702380D01*
X161766285Y-101702380D01*
X161671047Y-101654761D01*
X161623428Y-101607142D01*
X162623428Y-100797619D02*
X162671047Y-100750000D01*
X162766285Y-100702380D01*
X163004380Y-100702380D01*
X163099619Y-100750000D01*
X163147238Y-100797619D01*
X163194857Y-100892857D01*
X163194857Y-100988095D01*
X163147238Y-101130952D01*
X162575809Y-101702380D01*
X163194857Y-101702380D01*
%TO.C,J21*%
X121740476Y-88802380D02*
X121740476Y-89516666D01*
X121692857Y-89659523D01*
X121597619Y-89754761D01*
X121454761Y-89802380D01*
X121359523Y-89802380D01*
X122169047Y-88897619D02*
X122216666Y-88850000D01*
X122311904Y-88802380D01*
X122550000Y-88802380D01*
X122645238Y-88850000D01*
X122692857Y-88897619D01*
X122740476Y-88992857D01*
X122740476Y-89088095D01*
X122692857Y-89230952D01*
X122121428Y-89802380D01*
X122740476Y-89802380D01*
X123692857Y-89802380D02*
X123121428Y-89802380D01*
X123407142Y-89802380D02*
X123407142Y-88802380D01*
X123311904Y-88945238D01*
X123216666Y-89040476D01*
X123121428Y-89088095D01*
%TO.C,H4*%
X168238095Y-41252380D02*
X168238095Y-40252380D01*
X168238095Y-40728571D02*
X168809523Y-40728571D01*
X168809523Y-41252380D02*
X168809523Y-40252380D01*
X169714285Y-40585714D02*
X169714285Y-41252380D01*
X169476190Y-40204761D02*
X169238095Y-40919047D01*
X169857142Y-40919047D01*
%TO.C,J1*%
X106341666Y-50052380D02*
X106341666Y-50766666D01*
X106294047Y-50909523D01*
X106198809Y-51004761D01*
X106055952Y-51052380D01*
X105960714Y-51052380D01*
X107341666Y-51052380D02*
X106770238Y-51052380D01*
X107055952Y-51052380D02*
X107055952Y-50052380D01*
X106960714Y-50195238D01*
X106865476Y-50290476D01*
X106770238Y-50338095D01*
%TO.C,J13*%
X121740476Y-114402380D02*
X121740476Y-115116666D01*
X121692857Y-115259523D01*
X121597619Y-115354761D01*
X121454761Y-115402380D01*
X121359523Y-115402380D01*
X122740476Y-115402380D02*
X122169047Y-115402380D01*
X122454761Y-115402380D02*
X122454761Y-114402380D01*
X122359523Y-114545238D01*
X122264285Y-114640476D01*
X122169047Y-114688095D01*
X123073809Y-114402380D02*
X123692857Y-114402380D01*
X123359523Y-114783333D01*
X123502380Y-114783333D01*
X123597619Y-114830952D01*
X123645238Y-114878571D01*
X123692857Y-114973809D01*
X123692857Y-115211904D01*
X123645238Y-115307142D01*
X123597619Y-115354761D01*
X123502380Y-115402380D01*
X123216666Y-115402380D01*
X123121428Y-115354761D01*
X123073809Y-115307142D01*
%TO.C,J20*%
X141546876Y-100295980D02*
X141546876Y-101010266D01*
X141499257Y-101153123D01*
X141404019Y-101248361D01*
X141261161Y-101295980D01*
X141165923Y-101295980D01*
X141975447Y-100391219D02*
X142023066Y-100343600D01*
X142118304Y-100295980D01*
X142356400Y-100295980D01*
X142451638Y-100343600D01*
X142499257Y-100391219D01*
X142546876Y-100486457D01*
X142546876Y-100581695D01*
X142499257Y-100724552D01*
X141927828Y-101295980D01*
X142546876Y-101295980D01*
X143165923Y-100295980D02*
X143261161Y-100295980D01*
X143356400Y-100343600D01*
X143404019Y-100391219D01*
X143451638Y-100486457D01*
X143499257Y-100676933D01*
X143499257Y-100915028D01*
X143451638Y-101105504D01*
X143404019Y-101200742D01*
X143356400Y-101248361D01*
X143261161Y-101295980D01*
X143165923Y-101295980D01*
X143070685Y-101248361D01*
X143023066Y-101200742D01*
X142975447Y-101105504D01*
X142927828Y-100915028D01*
X142927828Y-100676933D01*
X142975447Y-100486457D01*
X143023066Y-100391219D01*
X143070685Y-100343600D01*
X143165923Y-100295980D01*
X148284971Y-104950742D02*
X149427828Y-104950742D01*
X148856400Y-105522171D02*
X148856400Y-104379314D01*
X135284971Y-104950742D02*
X136427828Y-104950742D01*
%TO.C,J12*%
X124390476Y-125702380D02*
X124390476Y-126416666D01*
X124342857Y-126559523D01*
X124247619Y-126654761D01*
X124104761Y-126702380D01*
X124009523Y-126702380D01*
X125390476Y-126702380D02*
X124819047Y-126702380D01*
X125104761Y-126702380D02*
X125104761Y-125702380D01*
X125009523Y-125845238D01*
X124914285Y-125940476D01*
X124819047Y-125988095D01*
X125771428Y-125797619D02*
X125819047Y-125750000D01*
X125914285Y-125702380D01*
X126152380Y-125702380D01*
X126247619Y-125750000D01*
X126295238Y-125797619D01*
X126342857Y-125892857D01*
X126342857Y-125988095D01*
X126295238Y-126130952D01*
X125723809Y-126702380D01*
X126342857Y-126702380D01*
X118128571Y-130357142D02*
X119271428Y-130357142D01*
X131128571Y-130357142D02*
X132271428Y-130357142D01*
X131700000Y-130928571D02*
X131700000Y-129785714D01*
%TO.C,J29*%
X101940476Y-119727380D02*
X101940476Y-120441666D01*
X101892857Y-120584523D01*
X101797619Y-120679761D01*
X101654761Y-120727380D01*
X101559523Y-120727380D01*
X102369047Y-119822619D02*
X102416666Y-119775000D01*
X102511904Y-119727380D01*
X102750000Y-119727380D01*
X102845238Y-119775000D01*
X102892857Y-119822619D01*
X102940476Y-119917857D01*
X102940476Y-120013095D01*
X102892857Y-120155952D01*
X102321428Y-120727380D01*
X102940476Y-120727380D01*
X103416666Y-120727380D02*
X103607142Y-120727380D01*
X103702380Y-120679761D01*
X103750000Y-120632142D01*
X103845238Y-120489285D01*
X103892857Y-120298809D01*
X103892857Y-119917857D01*
X103845238Y-119822619D01*
X103797619Y-119775000D01*
X103702380Y-119727380D01*
X103511904Y-119727380D01*
X103416666Y-119775000D01*
X103369047Y-119822619D01*
X103321428Y-119917857D01*
X103321428Y-120155952D01*
X103369047Y-120251190D01*
X103416666Y-120298809D01*
X103511904Y-120346428D01*
X103702380Y-120346428D01*
X103797619Y-120298809D01*
X103845238Y-120251190D01*
X103892857Y-120155952D01*
%TO.C,J14*%
X124390476Y-100295980D02*
X124390476Y-101010266D01*
X124342857Y-101153123D01*
X124247619Y-101248361D01*
X124104761Y-101295980D01*
X124009523Y-101295980D01*
X125390476Y-101295980D02*
X124819047Y-101295980D01*
X125104761Y-101295980D02*
X125104761Y-100295980D01*
X125009523Y-100438838D01*
X124914285Y-100534076D01*
X124819047Y-100581695D01*
X126247619Y-100629314D02*
X126247619Y-101295980D01*
X126009523Y-100248361D02*
X125771428Y-100962647D01*
X126390476Y-100962647D01*
X131128571Y-104950742D02*
X132271428Y-104950742D01*
X131700000Y-105522171D02*
X131700000Y-104379314D01*
X118128571Y-104950742D02*
X119271428Y-104950742D01*
%TO.C,J17*%
X101940476Y-93652380D02*
X101940476Y-94366666D01*
X101892857Y-94509523D01*
X101797619Y-94604761D01*
X101654761Y-94652380D01*
X101559523Y-94652380D01*
X102940476Y-94652380D02*
X102369047Y-94652380D01*
X102654761Y-94652380D02*
X102654761Y-93652380D01*
X102559523Y-93795238D01*
X102464285Y-93890476D01*
X102369047Y-93938095D01*
X103273809Y-93652380D02*
X103940476Y-93652380D01*
X103511904Y-94652380D01*
%TO.C,J6*%
X104916666Y-126852380D02*
X104916666Y-127566666D01*
X104869047Y-127709523D01*
X104773809Y-127804761D01*
X104630952Y-127852380D01*
X104535714Y-127852380D01*
X105821428Y-126852380D02*
X105630952Y-126852380D01*
X105535714Y-126900000D01*
X105488095Y-126947619D01*
X105392857Y-127090476D01*
X105345238Y-127280952D01*
X105345238Y-127661904D01*
X105392857Y-127757142D01*
X105440476Y-127804761D01*
X105535714Y-127852380D01*
X105726190Y-127852380D01*
X105821428Y-127804761D01*
X105869047Y-127757142D01*
X105916666Y-127661904D01*
X105916666Y-127423809D01*
X105869047Y-127328571D01*
X105821428Y-127280952D01*
X105726190Y-127233333D01*
X105535714Y-127233333D01*
X105440476Y-127280952D01*
X105392857Y-127328571D01*
X105345238Y-127423809D01*
%TO.C,J7*%
X95123809Y-74676180D02*
X95123809Y-75390466D01*
X95076190Y-75533323D01*
X94980952Y-75628561D01*
X94838095Y-75676180D01*
X94742857Y-75676180D01*
X95504762Y-74676180D02*
X96171428Y-74676180D01*
X95742857Y-75676180D01*
%TO.C,J5*%
X102416666Y-67538780D02*
X102416666Y-68253066D01*
X102369047Y-68395923D01*
X102273809Y-68491161D01*
X102130952Y-68538780D01*
X102035714Y-68538780D01*
X103369047Y-67538780D02*
X102892857Y-67538780D01*
X102845238Y-68014971D01*
X102892857Y-67967352D01*
X102988095Y-67919733D01*
X103226190Y-67919733D01*
X103321428Y-67967352D01*
X103369047Y-68014971D01*
X103416666Y-68110209D01*
X103416666Y-68348304D01*
X103369047Y-68443542D01*
X103321428Y-68491161D01*
X103226190Y-68538780D01*
X102988095Y-68538780D01*
X102892857Y-68491161D01*
X102845238Y-68443542D01*
%TO.C,J24*%
X141611276Y-125702380D02*
X141611276Y-126416666D01*
X141563657Y-126559523D01*
X141468419Y-126654761D01*
X141325561Y-126702380D01*
X141230323Y-126702380D01*
X142039847Y-125797619D02*
X142087466Y-125750000D01*
X142182704Y-125702380D01*
X142420800Y-125702380D01*
X142516038Y-125750000D01*
X142563657Y-125797619D01*
X142611276Y-125892857D01*
X142611276Y-125988095D01*
X142563657Y-126130952D01*
X141992228Y-126702380D01*
X142611276Y-126702380D01*
X143468419Y-126035714D02*
X143468419Y-126702380D01*
X143230323Y-125654761D02*
X142992228Y-126369047D01*
X143611276Y-126369047D01*
X135349371Y-130357142D02*
X136492228Y-130357142D01*
X148349371Y-130357142D02*
X149492228Y-130357142D01*
X148920800Y-130928571D02*
X148920800Y-129785714D01*
%TO.C,J10*%
X156242476Y-60299780D02*
X156242476Y-61014066D01*
X156194857Y-61156923D01*
X156099619Y-61252161D01*
X155956761Y-61299780D01*
X155861523Y-61299780D01*
X157242476Y-61299780D02*
X156671047Y-61299780D01*
X156956761Y-61299780D02*
X156956761Y-60299780D01*
X156861523Y-60442638D01*
X156766285Y-60537876D01*
X156671047Y-60585495D01*
X157861523Y-60299780D02*
X157956761Y-60299780D01*
X158052000Y-60347400D01*
X158099619Y-60395019D01*
X158147238Y-60490257D01*
X158194857Y-60680733D01*
X158194857Y-60918828D01*
X158147238Y-61109304D01*
X158099619Y-61204542D01*
X158052000Y-61252161D01*
X157956761Y-61299780D01*
X157861523Y-61299780D01*
X157766285Y-61252161D01*
X157718666Y-61204542D01*
X157671047Y-61109304D01*
X157623428Y-60918828D01*
X157623428Y-60680733D01*
X157671047Y-60490257D01*
X157718666Y-60395019D01*
X157766285Y-60347400D01*
X157861523Y-60299780D01*
%TO.C,J11*%
X156242476Y-86602380D02*
X156242476Y-87316666D01*
X156194857Y-87459523D01*
X156099619Y-87554761D01*
X155956761Y-87602380D01*
X155861523Y-87602380D01*
X157242476Y-87602380D02*
X156671047Y-87602380D01*
X156956761Y-87602380D02*
X156956761Y-86602380D01*
X156861523Y-86745238D01*
X156766285Y-86840476D01*
X156671047Y-86888095D01*
X158194857Y-87602380D02*
X157623428Y-87602380D01*
X157909142Y-87602380D02*
X157909142Y-86602380D01*
X157813904Y-86745238D01*
X157718666Y-86840476D01*
X157623428Y-86888095D01*
D11*
%TO.C,J2*%
X155302000Y-114250000D02*
X155302000Y-115000000D01*
X151992000Y-114240000D02*
X151992000Y-120210000D01*
X152002000Y-115000000D02*
X153802000Y-115000000D01*
X152952000Y-113950000D02*
X151702000Y-113950000D01*
X155302000Y-115000000D02*
X158802000Y-115000000D01*
X162102000Y-116500000D02*
X161352000Y-116500000D01*
X152002000Y-114250000D02*
X152002000Y-115000000D01*
X161352000Y-119450000D02*
X157052000Y-119450000D01*
X162112000Y-120210000D02*
X162112000Y-114240000D01*
X152752000Y-116500000D02*
X152752000Y-117840000D01*
X162102000Y-114250000D02*
X160302000Y-114250000D01*
X162112000Y-114240000D02*
X151992000Y-114240000D01*
X160302000Y-115000000D02*
X162102000Y-115000000D01*
X153802000Y-114250000D02*
X152002000Y-114250000D01*
X157052000Y-119450000D02*
X153812000Y-119450000D01*
X161352000Y-116500000D02*
X161352000Y-119450000D01*
X151702000Y-113950000D02*
X151702000Y-115200000D01*
X160302000Y-114250000D02*
X160302000Y-115000000D01*
X158802000Y-115000000D02*
X158802000Y-114250000D01*
X152002000Y-116500000D02*
X152752000Y-116500000D01*
X158802000Y-114250000D02*
X155302000Y-114250000D01*
X153802000Y-115000000D02*
X153802000Y-114250000D01*
X162102000Y-115000000D02*
X162102000Y-114250000D01*
X151992000Y-120210000D02*
X162112000Y-120210000D01*
%TO.C,J3*%
X96150000Y-61647400D02*
X94900000Y-61647400D01*
X95950000Y-64197400D02*
X95950000Y-65537400D01*
X95200000Y-61947400D02*
X95200000Y-62697400D01*
X105300000Y-64197400D02*
X104550000Y-64197400D01*
X97000000Y-61947400D02*
X95200000Y-61947400D01*
X105300000Y-61947400D02*
X103500000Y-61947400D01*
X95200000Y-64197400D02*
X95950000Y-64197400D01*
X104550000Y-67147400D02*
X100250000Y-67147400D01*
X102000000Y-61947400D02*
X98500000Y-61947400D01*
X105310000Y-61937400D02*
X95190000Y-61937400D01*
X95190000Y-61937400D02*
X95190000Y-67907400D01*
X94900000Y-61647400D02*
X94900000Y-62897400D01*
X105310000Y-67907400D02*
X105310000Y-61937400D01*
X102000000Y-62697400D02*
X102000000Y-61947400D01*
X103500000Y-61947400D02*
X103500000Y-62697400D01*
X95200000Y-62697400D02*
X97000000Y-62697400D01*
X100250000Y-67147400D02*
X97010000Y-67147400D01*
X97000000Y-62697400D02*
X97000000Y-61947400D01*
X95190000Y-67907400D02*
X105310000Y-67907400D01*
X103500000Y-62697400D02*
X105300000Y-62697400D01*
X104550000Y-64197400D02*
X104550000Y-67147400D01*
X98500000Y-62697400D02*
X102000000Y-62697400D01*
X98500000Y-61947400D02*
X98500000Y-62697400D01*
X105300000Y-62697400D02*
X105300000Y-61947400D01*
%TO.C,J15*%
X147556400Y-98800000D02*
X147556400Y-90500000D01*
X131856400Y-96200000D02*
X134706400Y-98800000D01*
X134706400Y-98800000D02*
X147556400Y-98800000D01*
X147556400Y-90500000D02*
X134706400Y-90500000D01*
X134706400Y-90500000D02*
X131856400Y-93050000D01*
X131856400Y-93050000D02*
X131856400Y-96200000D01*
%TO.C,J25*%
X130400000Y-72325000D02*
X130400000Y-64025000D01*
X130400000Y-64025000D02*
X117550000Y-64025000D01*
X114700000Y-66575000D02*
X114700000Y-69725000D01*
X114700000Y-69725000D02*
X117550000Y-72325000D01*
X117550000Y-64025000D02*
X114700000Y-66575000D01*
X117550000Y-72325000D02*
X130400000Y-72325000D01*
%TO.C,J30*%
X153802000Y-95300000D02*
X152002000Y-95300000D01*
X155302000Y-96050000D02*
X163802000Y-96050000D01*
X163802000Y-96050000D02*
X163802000Y-95300000D01*
X152002000Y-96050000D02*
X153802000Y-96050000D01*
X152752000Y-97550000D02*
X152752000Y-98890000D01*
X151992000Y-101260000D02*
X167112000Y-101260000D01*
X167102000Y-97550000D02*
X166352000Y-97550000D01*
X167102000Y-95300000D02*
X165302000Y-95300000D01*
X166352000Y-97550000D02*
X166352000Y-100500000D01*
X159552000Y-100500000D02*
X153812000Y-100500000D01*
X167112000Y-95290000D02*
X151992000Y-95290000D01*
X165302000Y-96050000D02*
X167102000Y-96050000D01*
X152952000Y-95000000D02*
X151702000Y-95000000D01*
X165302000Y-95300000D02*
X165302000Y-96050000D01*
X163802000Y-95300000D02*
X155302000Y-95300000D01*
X151992000Y-95290000D02*
X151992000Y-101260000D01*
X167112000Y-101260000D02*
X167112000Y-95290000D01*
X153802000Y-96050000D02*
X153802000Y-95300000D01*
X152002000Y-97550000D02*
X152752000Y-97550000D01*
X152002000Y-95300000D02*
X152002000Y-96050000D01*
X155302000Y-95300000D02*
X155302000Y-96050000D01*
X166352000Y-100500000D02*
X159552000Y-100500000D01*
X167102000Y-96050000D02*
X167102000Y-95300000D01*
X151702000Y-95000000D02*
X151702000Y-96250000D01*
%TO.C,J22*%
X172102000Y-130750000D02*
X171352000Y-130750000D01*
X170302000Y-128500000D02*
X170302000Y-129250000D01*
X171352000Y-133700000D02*
X162052000Y-133700000D01*
X171352000Y-130750000D02*
X171352000Y-133700000D01*
X172112000Y-128490000D02*
X151992000Y-128490000D01*
X151992000Y-134460000D02*
X172112000Y-134460000D01*
X152752000Y-130750000D02*
X152752000Y-132090000D01*
X172102000Y-128500000D02*
X170302000Y-128500000D01*
X152002000Y-129250000D02*
X153802000Y-129250000D01*
X151992000Y-128490000D02*
X151992000Y-134460000D01*
X168802000Y-129250000D02*
X168802000Y-128500000D01*
X152002000Y-130750000D02*
X152752000Y-130750000D01*
X162052000Y-133700000D02*
X153812000Y-133700000D01*
X152952000Y-128200000D02*
X151702000Y-128200000D01*
X168802000Y-128500000D02*
X155302000Y-128500000D01*
X153802000Y-129250000D02*
X153802000Y-128500000D01*
X172102000Y-129250000D02*
X172102000Y-128500000D01*
X152002000Y-128500000D02*
X152002000Y-129250000D01*
X155302000Y-129250000D02*
X168802000Y-129250000D01*
X153802000Y-128500000D02*
X152002000Y-128500000D01*
X172112000Y-134460000D02*
X172112000Y-128490000D01*
X170302000Y-129250000D02*
X172102000Y-129250000D01*
X155302000Y-128500000D02*
X155302000Y-129250000D01*
X151702000Y-128200000D02*
X151702000Y-129450000D01*
%TO.C,J31*%
X98500000Y-102350000D02*
X98500000Y-103100000D01*
X97000000Y-103100000D02*
X97000000Y-102350000D01*
X115300000Y-103100000D02*
X115300000Y-102350000D01*
X98500000Y-103100000D02*
X112000000Y-103100000D01*
X114550000Y-104600000D02*
X114550000Y-107550000D01*
X95950000Y-104600000D02*
X95950000Y-105940000D01*
X96150000Y-102050000D02*
X94900000Y-102050000D01*
X95190000Y-102340000D02*
X95190000Y-108310000D01*
X115310000Y-102340000D02*
X95190000Y-102340000D01*
X97000000Y-102350000D02*
X95200000Y-102350000D01*
X114550000Y-107550000D02*
X105250000Y-107550000D01*
X94900000Y-102050000D02*
X94900000Y-103300000D01*
X115300000Y-104600000D02*
X114550000Y-104600000D01*
X113500000Y-103100000D02*
X115300000Y-103100000D01*
X95190000Y-108310000D02*
X115310000Y-108310000D01*
X115300000Y-102350000D02*
X113500000Y-102350000D01*
X112000000Y-103100000D02*
X112000000Y-102350000D01*
X95200000Y-104600000D02*
X95950000Y-104600000D01*
X113500000Y-102350000D02*
X113500000Y-103100000D01*
X115310000Y-108310000D02*
X115310000Y-102340000D01*
X112000000Y-102350000D02*
X98500000Y-102350000D01*
X95200000Y-102350000D02*
X95200000Y-103100000D01*
X105250000Y-107550000D02*
X97010000Y-107550000D01*
X95200000Y-103100000D02*
X97000000Y-103100000D01*
%TO.C,J8*%
X136509800Y-79035000D02*
X138209800Y-80335000D01*
X138209800Y-74915000D02*
X146929800Y-74915000D01*
X138209800Y-80335000D02*
X146929800Y-80335000D01*
X146929800Y-74915000D02*
X146929800Y-80335000D01*
X136509800Y-76215000D02*
X138209800Y-74915000D01*
X136509800Y-76215000D02*
X136509800Y-79035000D01*
%TO.C,J26*%
X95950000Y-116500000D02*
X95950000Y-117840000D01*
X98500000Y-115000000D02*
X102000000Y-115000000D01*
X96150000Y-113950000D02*
X94900000Y-113950000D01*
X98500000Y-114250000D02*
X98500000Y-115000000D01*
X105310000Y-114240000D02*
X95190000Y-114240000D01*
X104550000Y-119450000D02*
X100250000Y-119450000D01*
X100250000Y-119450000D02*
X97010000Y-119450000D01*
X97000000Y-114250000D02*
X95200000Y-114250000D01*
X105300000Y-114250000D02*
X103500000Y-114250000D01*
X104550000Y-116500000D02*
X104550000Y-119450000D01*
X95200000Y-116500000D02*
X95950000Y-116500000D01*
X95190000Y-120210000D02*
X105310000Y-120210000D01*
X105300000Y-115000000D02*
X105300000Y-114250000D01*
X102000000Y-115000000D02*
X102000000Y-114250000D01*
X105310000Y-120210000D02*
X105310000Y-114240000D01*
X97000000Y-115000000D02*
X97000000Y-114250000D01*
X95190000Y-114240000D02*
X95190000Y-120210000D01*
X102000000Y-114250000D02*
X98500000Y-114250000D01*
X105300000Y-116500000D02*
X104550000Y-116500000D01*
X95200000Y-114250000D02*
X95200000Y-115000000D01*
X94900000Y-113950000D02*
X94900000Y-115200000D01*
X95200000Y-115000000D02*
X97000000Y-115000000D01*
X103500000Y-114250000D02*
X103500000Y-115000000D01*
X103500000Y-115000000D02*
X105300000Y-115000000D01*
%TO.C,J9*%
X147620800Y-116100000D02*
X134770800Y-116100000D01*
X134770800Y-116100000D02*
X131920800Y-118650000D01*
X134770800Y-124400000D02*
X147620800Y-124400000D01*
X131920800Y-118650000D02*
X131920800Y-121800000D01*
X131920800Y-121800000D02*
X134770800Y-124400000D01*
X147620800Y-124400000D02*
X147620800Y-116100000D01*
%TO.C,J28*%
X140300000Y-51975000D02*
X127450000Y-51975000D01*
X127450000Y-60275000D02*
X140300000Y-60275000D01*
X124600000Y-57675000D02*
X127450000Y-60275000D01*
X140300000Y-60275000D02*
X140300000Y-51975000D01*
X124600000Y-54525000D02*
X124600000Y-57675000D01*
X127450000Y-51975000D02*
X124600000Y-54525000D01*
%TO.C,J19*%
X146919800Y-64025000D02*
X134069800Y-64025000D01*
X131219800Y-66575000D02*
X131219800Y-69725000D01*
X134069800Y-72325000D02*
X146919800Y-72325000D01*
X134069800Y-64025000D02*
X131219800Y-66575000D01*
X146919800Y-72325000D02*
X146919800Y-64025000D01*
X131219800Y-69725000D02*
X134069800Y-72325000D01*
%TO.C,J27*%
X95200000Y-90500000D02*
X95950000Y-90500000D01*
X94900000Y-87950000D02*
X94900000Y-89200000D01*
X105300000Y-90500000D02*
X104550000Y-90500000D01*
X104550000Y-90500000D02*
X104550000Y-93450000D01*
X105300000Y-89000000D02*
X105300000Y-88250000D01*
X98500000Y-88250000D02*
X98500000Y-89000000D01*
X104550000Y-93450000D02*
X100250000Y-93450000D01*
X98500000Y-89000000D02*
X102000000Y-89000000D01*
X96150000Y-87950000D02*
X94900000Y-87950000D01*
X97000000Y-89000000D02*
X97000000Y-88250000D01*
X103500000Y-89000000D02*
X105300000Y-89000000D01*
X105310000Y-94210000D02*
X105310000Y-88240000D01*
X103500000Y-88250000D02*
X103500000Y-89000000D01*
X95950000Y-90500000D02*
X95950000Y-91840000D01*
X95190000Y-94210000D02*
X105310000Y-94210000D01*
X102000000Y-89000000D02*
X102000000Y-88250000D01*
X97000000Y-88250000D02*
X95200000Y-88250000D01*
X95200000Y-88250000D02*
X95200000Y-89000000D01*
X105310000Y-88240000D02*
X95190000Y-88240000D01*
X102000000Y-88250000D02*
X98500000Y-88250000D01*
X100250000Y-93450000D02*
X97010000Y-93450000D01*
X105300000Y-88250000D02*
X103500000Y-88250000D01*
X95190000Y-88240000D02*
X95190000Y-94210000D01*
X95200000Y-89000000D02*
X97000000Y-89000000D01*
%TO.C,J18*%
X121690000Y-80335000D02*
X130410000Y-80335000D01*
X119990000Y-76215000D02*
X119990000Y-79035000D01*
X119990000Y-76215000D02*
X121690000Y-74915000D01*
X119990000Y-79035000D02*
X121690000Y-80335000D01*
X121690000Y-74915000D02*
X130410000Y-74915000D01*
X130410000Y-74915000D02*
X130410000Y-80335000D01*
%TO.C,J23*%
X152002000Y-78573800D02*
X152752000Y-78573800D01*
X153802000Y-76323800D02*
X152002000Y-76323800D01*
X153802000Y-77073800D02*
X153802000Y-76323800D01*
X172102000Y-78573800D02*
X171352000Y-78573800D01*
X152752000Y-78573800D02*
X152752000Y-79913800D01*
X151992000Y-82283800D02*
X172112000Y-82283800D01*
X152002000Y-76323800D02*
X152002000Y-77073800D01*
X172112000Y-82283800D02*
X172112000Y-76313800D01*
X168802000Y-76323800D02*
X155302000Y-76323800D01*
X172102000Y-76323800D02*
X170302000Y-76323800D01*
X170302000Y-76323800D02*
X170302000Y-77073800D01*
X162052000Y-81523800D02*
X153812000Y-81523800D01*
X170302000Y-77073800D02*
X172102000Y-77073800D01*
X155302000Y-76323800D02*
X155302000Y-77073800D01*
X151702000Y-76023800D02*
X151702000Y-77273800D01*
X171352000Y-81523800D02*
X162052000Y-81523800D01*
X155302000Y-77073800D02*
X168802000Y-77073800D01*
X168802000Y-77073800D02*
X168802000Y-76323800D01*
X152002000Y-77073800D02*
X153802000Y-77073800D01*
X172112000Y-76313800D02*
X151992000Y-76313800D01*
X151992000Y-76313800D02*
X151992000Y-82283800D01*
X152952000Y-76023800D02*
X151702000Y-76023800D01*
X172102000Y-77073800D02*
X172102000Y-76323800D01*
X171352000Y-78573800D02*
X171352000Y-81523800D01*
%TO.C,J16*%
X151702000Y-68886400D02*
X151702000Y-70136400D01*
X163802000Y-69936400D02*
X163802000Y-69186400D01*
X165302000Y-69936400D02*
X167102000Y-69936400D01*
X163802000Y-69186400D02*
X155302000Y-69186400D01*
X152002000Y-69936400D02*
X153802000Y-69936400D01*
X152002000Y-69186400D02*
X152002000Y-69936400D01*
X155302000Y-69936400D02*
X163802000Y-69936400D01*
X151992000Y-69176400D02*
X151992000Y-75146400D01*
X151992000Y-75146400D02*
X167112000Y-75146400D01*
X159552000Y-74386400D02*
X153812000Y-74386400D01*
X152002000Y-71436400D02*
X152752000Y-71436400D01*
X152752000Y-71436400D02*
X152752000Y-72776400D01*
X153802000Y-69186400D02*
X152002000Y-69186400D01*
X167112000Y-69176400D02*
X151992000Y-69176400D01*
X166352000Y-71436400D02*
X166352000Y-74386400D01*
X167102000Y-69936400D02*
X167102000Y-69186400D01*
X167112000Y-75146400D02*
X167112000Y-69176400D01*
X167102000Y-71436400D02*
X166352000Y-71436400D01*
X152952000Y-68886400D02*
X151702000Y-68886400D01*
X153802000Y-69936400D02*
X153802000Y-69186400D01*
X166352000Y-74386400D02*
X159552000Y-74386400D01*
X155302000Y-69186400D02*
X155302000Y-69936400D01*
X165302000Y-69186400D02*
X165302000Y-69936400D01*
X167102000Y-69186400D02*
X165302000Y-69186400D01*
%TO.C,J4*%
X159552000Y-126575000D02*
X153812000Y-126575000D01*
X166352000Y-126575000D02*
X159552000Y-126575000D01*
X151992000Y-127335000D02*
X167112000Y-127335000D01*
X163802000Y-121375000D02*
X155302000Y-121375000D01*
X153802000Y-121375000D02*
X152002000Y-121375000D01*
X167102000Y-123625000D02*
X166352000Y-123625000D01*
X152002000Y-122125000D02*
X153802000Y-122125000D01*
X152002000Y-123625000D02*
X152752000Y-123625000D01*
X153802000Y-122125000D02*
X153802000Y-121375000D01*
X165302000Y-121375000D02*
X165302000Y-122125000D01*
X152752000Y-123625000D02*
X152752000Y-124965000D01*
X151992000Y-121365000D02*
X151992000Y-127335000D01*
X163802000Y-122125000D02*
X163802000Y-121375000D01*
X167102000Y-122125000D02*
X167102000Y-121375000D01*
X167112000Y-127335000D02*
X167112000Y-121365000D01*
X152952000Y-121075000D02*
X151702000Y-121075000D01*
X152002000Y-121375000D02*
X152002000Y-122125000D01*
X165302000Y-122125000D02*
X167102000Y-122125000D01*
X167112000Y-121365000D02*
X151992000Y-121365000D01*
X167102000Y-121375000D02*
X165302000Y-121375000D01*
X155302000Y-121375000D02*
X155302000Y-122125000D01*
X151702000Y-121075000D02*
X151702000Y-122325000D01*
X166352000Y-123625000D02*
X166352000Y-126575000D01*
X155302000Y-122125000D02*
X163802000Y-122125000D01*
%TO.C,J32*%
X172102000Y-104600000D02*
X171352000Y-104600000D01*
X171352000Y-104600000D02*
X171352000Y-107550000D01*
X171352000Y-107550000D02*
X162052000Y-107550000D01*
X152002000Y-102350000D02*
X152002000Y-103100000D01*
X151702000Y-102050000D02*
X151702000Y-103300000D01*
X168802000Y-103100000D02*
X168802000Y-102350000D01*
X153802000Y-102350000D02*
X152002000Y-102350000D01*
X151992000Y-108310000D02*
X172112000Y-108310000D01*
X155302000Y-103100000D02*
X168802000Y-103100000D01*
X172102000Y-103100000D02*
X172102000Y-102350000D01*
X170302000Y-102350000D02*
X170302000Y-103100000D01*
X152002000Y-103100000D02*
X153802000Y-103100000D01*
X155302000Y-102350000D02*
X155302000Y-103100000D01*
X162052000Y-107550000D02*
X153812000Y-107550000D01*
X152002000Y-104600000D02*
X152752000Y-104600000D01*
X168802000Y-102350000D02*
X155302000Y-102350000D01*
X172112000Y-102340000D02*
X151992000Y-102340000D01*
X172112000Y-108310000D02*
X172112000Y-102340000D01*
X152952000Y-102050000D02*
X151702000Y-102050000D01*
X151992000Y-102340000D02*
X151992000Y-108310000D01*
X170302000Y-103100000D02*
X172102000Y-103100000D01*
X152752000Y-104600000D02*
X152752000Y-105940000D01*
X153802000Y-103100000D02*
X153802000Y-102350000D01*
X172102000Y-102350000D02*
X170302000Y-102350000D01*
%TO.C,J21*%
X114700000Y-93050000D02*
X114700000Y-96200000D01*
X130400000Y-98800000D02*
X130400000Y-90500000D01*
X117550000Y-90500000D02*
X114700000Y-93050000D01*
X114700000Y-96200000D02*
X117550000Y-98800000D01*
X117550000Y-98800000D02*
X130400000Y-98800000D01*
X130400000Y-90500000D02*
X117550000Y-90500000D01*
%TO.C,J1*%
X114925000Y-52450000D02*
X116725000Y-52450000D01*
X97575000Y-51400000D02*
X96325000Y-51400000D01*
X98425000Y-52450000D02*
X98425000Y-51700000D01*
X96325000Y-51400000D02*
X96325000Y-52650000D01*
X116725000Y-53950000D02*
X115975000Y-53950000D01*
X116725000Y-51700000D02*
X114925000Y-51700000D01*
X99925000Y-52450000D02*
X113425000Y-52450000D01*
X99925000Y-51700000D02*
X99925000Y-52450000D01*
X96625000Y-51700000D02*
X96625000Y-52450000D01*
X114925000Y-51700000D02*
X114925000Y-52450000D01*
X97375000Y-53950000D02*
X97375000Y-55290000D01*
X96625000Y-52450000D02*
X98425000Y-52450000D01*
X96625000Y-53950000D02*
X97375000Y-53950000D01*
X113425000Y-52450000D02*
X113425000Y-51700000D01*
X106675000Y-56900000D02*
X98435000Y-56900000D01*
X116725000Y-52450000D02*
X116725000Y-51700000D01*
X113425000Y-51700000D02*
X99925000Y-51700000D01*
X116735000Y-51690000D02*
X96615000Y-51690000D01*
X115975000Y-56900000D02*
X106675000Y-56900000D01*
X115975000Y-53950000D02*
X115975000Y-56900000D01*
X96615000Y-51690000D02*
X96615000Y-57660000D01*
X98425000Y-51700000D02*
X96625000Y-51700000D01*
X96615000Y-57660000D02*
X116735000Y-57660000D01*
X116735000Y-57660000D02*
X116735000Y-51690000D01*
%TO.C,J13*%
X114700000Y-121800000D02*
X117550000Y-124400000D01*
X114700000Y-118650000D02*
X114700000Y-121800000D01*
X117550000Y-124400000D02*
X130400000Y-124400000D01*
X130400000Y-124400000D02*
X130400000Y-116100000D01*
X130400000Y-116100000D02*
X117550000Y-116100000D01*
X117550000Y-116100000D02*
X114700000Y-118650000D01*
%TO.C,J20*%
X137146400Y-106253600D02*
X138846400Y-107553600D01*
X138846400Y-102133600D02*
X147566400Y-102133600D01*
X137146400Y-103433600D02*
X137146400Y-106253600D01*
X147566400Y-102133600D02*
X147566400Y-107553600D01*
X138846400Y-107553600D02*
X147566400Y-107553600D01*
X137146400Y-103433600D02*
X138846400Y-102133600D01*
%TO.C,J12*%
X121690000Y-127540000D02*
X130410000Y-127540000D01*
X119990000Y-128840000D02*
X119990000Y-131660000D01*
X119990000Y-128840000D02*
X121690000Y-127540000D01*
X121690000Y-132960000D02*
X130410000Y-132960000D01*
X130410000Y-127540000D02*
X130410000Y-132960000D01*
X119990000Y-131660000D02*
X121690000Y-132960000D01*
%TO.C,J29*%
X102750000Y-126575000D02*
X97010000Y-126575000D01*
X109550000Y-126575000D02*
X102750000Y-126575000D01*
X110300000Y-121375000D02*
X108500000Y-121375000D01*
X95200000Y-123625000D02*
X95950000Y-123625000D01*
X94900000Y-121075000D02*
X94900000Y-122325000D01*
X95190000Y-121365000D02*
X95190000Y-127335000D01*
X97000000Y-121375000D02*
X95200000Y-121375000D01*
X110310000Y-127335000D02*
X110310000Y-121365000D01*
X96150000Y-121075000D02*
X94900000Y-121075000D01*
X98500000Y-122125000D02*
X107000000Y-122125000D01*
X108500000Y-122125000D02*
X110300000Y-122125000D01*
X107000000Y-122125000D02*
X107000000Y-121375000D01*
X110310000Y-121365000D02*
X95190000Y-121365000D01*
X95950000Y-123625000D02*
X95950000Y-124965000D01*
X97000000Y-122125000D02*
X97000000Y-121375000D01*
X107000000Y-121375000D02*
X98500000Y-121375000D01*
X109550000Y-123625000D02*
X109550000Y-126575000D01*
X110300000Y-122125000D02*
X110300000Y-121375000D01*
X110300000Y-123625000D02*
X109550000Y-123625000D01*
X98500000Y-121375000D02*
X98500000Y-122125000D01*
X108500000Y-121375000D02*
X108500000Y-122125000D01*
X95190000Y-127335000D02*
X110310000Y-127335000D01*
X95200000Y-122125000D02*
X97000000Y-122125000D01*
X95200000Y-121375000D02*
X95200000Y-122125000D01*
%TO.C,J14*%
X121690000Y-107553600D02*
X130410000Y-107553600D01*
X119990000Y-103433600D02*
X121690000Y-102133600D01*
X130410000Y-102133600D02*
X130410000Y-107553600D01*
X119990000Y-103433600D02*
X119990000Y-106253600D01*
X121690000Y-102133600D02*
X130410000Y-102133600D01*
X119990000Y-106253600D02*
X121690000Y-107553600D01*
%TO.C,J17*%
X95190000Y-95290000D02*
X95190000Y-101260000D01*
X102750000Y-100500000D02*
X97010000Y-100500000D01*
X110300000Y-95300000D02*
X108500000Y-95300000D01*
X96150000Y-95000000D02*
X94900000Y-95000000D01*
X110310000Y-95290000D02*
X95190000Y-95290000D01*
X110300000Y-96050000D02*
X110300000Y-95300000D01*
X98500000Y-96050000D02*
X107000000Y-96050000D01*
X95950000Y-97550000D02*
X95950000Y-98890000D01*
X109550000Y-97550000D02*
X109550000Y-100500000D01*
X95190000Y-101260000D02*
X110310000Y-101260000D01*
X110310000Y-101260000D02*
X110310000Y-95290000D01*
X97000000Y-95300000D02*
X95200000Y-95300000D01*
X95200000Y-95300000D02*
X95200000Y-96050000D01*
X98500000Y-95300000D02*
X98500000Y-96050000D01*
X94900000Y-95000000D02*
X94900000Y-96250000D01*
X95200000Y-97550000D02*
X95950000Y-97550000D01*
X109550000Y-100500000D02*
X102750000Y-100500000D01*
X108500000Y-95300000D02*
X108500000Y-96050000D01*
X97000000Y-96050000D02*
X97000000Y-95300000D01*
X107000000Y-96050000D02*
X107000000Y-95300000D01*
X107000000Y-95300000D02*
X98500000Y-95300000D01*
X110300000Y-97550000D02*
X109550000Y-97550000D01*
X108500000Y-96050000D02*
X110300000Y-96050000D01*
X95200000Y-96050000D02*
X97000000Y-96050000D01*
%TO.C,J6*%
X115310000Y-128490000D02*
X95190000Y-128490000D01*
X112000000Y-128500000D02*
X98500000Y-128500000D01*
X95200000Y-130750000D02*
X95950000Y-130750000D01*
X105250000Y-133700000D02*
X97010000Y-133700000D01*
X115300000Y-129250000D02*
X115300000Y-128500000D01*
X95190000Y-128490000D02*
X95190000Y-134460000D01*
X95190000Y-134460000D02*
X115310000Y-134460000D01*
X115300000Y-130750000D02*
X114550000Y-130750000D01*
X98500000Y-128500000D02*
X98500000Y-129250000D01*
X95200000Y-128500000D02*
X95200000Y-129250000D01*
X97000000Y-129250000D02*
X97000000Y-128500000D01*
X112000000Y-129250000D02*
X112000000Y-128500000D01*
X98500000Y-129250000D02*
X112000000Y-129250000D01*
X95200000Y-129250000D02*
X97000000Y-129250000D01*
X114550000Y-133700000D02*
X105250000Y-133700000D01*
X113500000Y-128500000D02*
X113500000Y-129250000D01*
X115310000Y-134460000D02*
X115310000Y-128490000D01*
X97000000Y-128500000D02*
X95200000Y-128500000D01*
X95950000Y-130750000D02*
X95950000Y-132090000D01*
X115300000Y-128500000D02*
X113500000Y-128500000D01*
X94900000Y-128200000D02*
X94900000Y-129450000D01*
X96150000Y-128200000D02*
X94900000Y-128200000D01*
X113500000Y-129250000D02*
X115300000Y-129250000D01*
X114550000Y-130750000D02*
X114550000Y-133700000D01*
%TO.C,J7*%
X115300000Y-76323800D02*
X113500000Y-76323800D01*
X115310000Y-82283800D02*
X115310000Y-76313800D01*
X95190000Y-82283800D02*
X115310000Y-82283800D01*
X97000000Y-76323800D02*
X95200000Y-76323800D01*
X94900000Y-76023800D02*
X94900000Y-77273800D01*
X115300000Y-78573800D02*
X114550000Y-78573800D01*
X97000000Y-77073800D02*
X97000000Y-76323800D01*
X95200000Y-78573800D02*
X95950000Y-78573800D01*
X95200000Y-76323800D02*
X95200000Y-77073800D01*
X112000000Y-76323800D02*
X98500000Y-76323800D01*
X95950000Y-78573800D02*
X95950000Y-79913800D01*
X96150000Y-76023800D02*
X94900000Y-76023800D01*
X114550000Y-78573800D02*
X114550000Y-81523800D01*
X113500000Y-77073800D02*
X115300000Y-77073800D01*
X98500000Y-77073800D02*
X112000000Y-77073800D01*
X115310000Y-76313800D02*
X95190000Y-76313800D01*
X105250000Y-81523800D02*
X97010000Y-81523800D01*
X95190000Y-76313800D02*
X95190000Y-82283800D01*
X115300000Y-77073800D02*
X115300000Y-76323800D01*
X113500000Y-76323800D02*
X113500000Y-77073800D01*
X112000000Y-77073800D02*
X112000000Y-76323800D01*
X98500000Y-76323800D02*
X98500000Y-77073800D01*
X114550000Y-81523800D02*
X105250000Y-81523800D01*
X95200000Y-77073800D02*
X97000000Y-77073800D01*
%TO.C,J5*%
X108500000Y-69936400D02*
X110300000Y-69936400D01*
X110310000Y-75146400D02*
X110310000Y-69176400D01*
X109550000Y-74386400D02*
X102750000Y-74386400D01*
X95950000Y-71436400D02*
X95950000Y-72776400D01*
X107000000Y-69936400D02*
X107000000Y-69186400D01*
X95190000Y-75146400D02*
X110310000Y-75146400D01*
X96150000Y-68886400D02*
X94900000Y-68886400D01*
X108500000Y-69186400D02*
X108500000Y-69936400D01*
X95200000Y-71436400D02*
X95950000Y-71436400D01*
X102750000Y-74386400D02*
X97010000Y-74386400D01*
X110300000Y-71436400D02*
X109550000Y-71436400D01*
X110310000Y-69176400D02*
X95190000Y-69176400D01*
X95200000Y-69936400D02*
X97000000Y-69936400D01*
X97000000Y-69936400D02*
X97000000Y-69186400D01*
X95190000Y-69176400D02*
X95190000Y-75146400D01*
X97000000Y-69186400D02*
X95200000Y-69186400D01*
X95200000Y-69186400D02*
X95200000Y-69936400D01*
X94900000Y-68886400D02*
X94900000Y-70136400D01*
X107000000Y-69186400D02*
X98500000Y-69186400D01*
X110300000Y-69936400D02*
X110300000Y-69186400D01*
X98500000Y-69186400D02*
X98500000Y-69936400D01*
X110300000Y-69186400D02*
X108500000Y-69186400D01*
X109550000Y-71436400D02*
X109550000Y-74386400D01*
X98500000Y-69936400D02*
X107000000Y-69936400D01*
%TO.C,J24*%
X137210800Y-128840000D02*
X137210800Y-131660000D01*
X138910800Y-132960000D02*
X147630800Y-132960000D01*
X137210800Y-131660000D02*
X138910800Y-132960000D01*
X147630800Y-127540000D02*
X147630800Y-132960000D01*
X138910800Y-127540000D02*
X147630800Y-127540000D01*
X137210800Y-128840000D02*
X138910800Y-127540000D01*
%TO.C,J10*%
X162102000Y-62697400D02*
X162102000Y-61947400D01*
X152752000Y-64197400D02*
X152752000Y-65537400D01*
X153802000Y-62697400D02*
X153802000Y-61947400D01*
X151702000Y-61647400D02*
X151702000Y-62897400D01*
X152002000Y-64197400D02*
X152752000Y-64197400D01*
X161352000Y-64197400D02*
X161352000Y-67147400D01*
X162112000Y-67907400D02*
X162112000Y-61937400D01*
X158802000Y-62697400D02*
X158802000Y-61947400D01*
X160302000Y-61947400D02*
X160302000Y-62697400D01*
X158802000Y-61947400D02*
X155302000Y-61947400D01*
X151992000Y-61937400D02*
X151992000Y-67907400D01*
X152952000Y-61647400D02*
X151702000Y-61647400D01*
X162102000Y-64197400D02*
X161352000Y-64197400D01*
X157052000Y-67147400D02*
X153812000Y-67147400D01*
X155302000Y-61947400D02*
X155302000Y-62697400D01*
X155302000Y-62697400D02*
X158802000Y-62697400D01*
X160302000Y-62697400D02*
X162102000Y-62697400D01*
X152002000Y-62697400D02*
X153802000Y-62697400D01*
X152002000Y-61947400D02*
X152002000Y-62697400D01*
X162102000Y-61947400D02*
X160302000Y-61947400D01*
X162112000Y-61937400D02*
X151992000Y-61937400D01*
X153802000Y-61947400D02*
X152002000Y-61947400D01*
X161352000Y-67147400D02*
X157052000Y-67147400D01*
X151992000Y-67907400D02*
X162112000Y-67907400D01*
%TO.C,J11*%
X160302000Y-88250000D02*
X160302000Y-89000000D01*
X162102000Y-90500000D02*
X161352000Y-90500000D01*
X152002000Y-88250000D02*
X152002000Y-89000000D01*
X162112000Y-88240000D02*
X151992000Y-88240000D01*
X151992000Y-88240000D02*
X151992000Y-94210000D01*
X161352000Y-90500000D02*
X161352000Y-93450000D01*
X160302000Y-89000000D02*
X162102000Y-89000000D01*
X153802000Y-88250000D02*
X152002000Y-88250000D01*
X155302000Y-89000000D02*
X158802000Y-89000000D01*
X152002000Y-89000000D02*
X153802000Y-89000000D01*
X162102000Y-89000000D02*
X162102000Y-88250000D01*
X153802000Y-89000000D02*
X153802000Y-88250000D01*
X158802000Y-88250000D02*
X155302000Y-88250000D01*
X161352000Y-93450000D02*
X157052000Y-93450000D01*
X152752000Y-90500000D02*
X152752000Y-91840000D01*
X151702000Y-87950000D02*
X151702000Y-89200000D01*
X152002000Y-90500000D02*
X152752000Y-90500000D01*
X152952000Y-87950000D02*
X151702000Y-87950000D01*
X151992000Y-94210000D02*
X162112000Y-94210000D01*
X155302000Y-88250000D02*
X155302000Y-89000000D01*
X162112000Y-94210000D02*
X162112000Y-88240000D01*
X162102000Y-88250000D02*
X160302000Y-88250000D01*
X158802000Y-89000000D02*
X158802000Y-88250000D01*
X157052000Y-93450000D02*
X153812000Y-93450000D01*
%TD*%
M02*
