%TF.GenerationSoftware,KiCad,Pcbnew,(5.99.0-10650-gfdcc49d3ee)*%
%TF.CreationDate,2021-06-18T14:28:24+02:00*%
%TF.ProjectId,lipo_parallel_board,6c69706f-5f70-4617-9261-6c6c656c5f62,rev?*%
%TF.SameCoordinates,Original*%
%TF.FileFunction,Copper,L2,Bot*%
%TF.FilePolarity,Positive*%
%FSLAX46Y46*%
G04 Gerber Fmt 4.6, Leading zero omitted, Abs format (unit mm)*
G04 Created by KiCad (PCBNEW (5.99.0-10650-gfdcc49d3ee)) date 2021-06-18 14:28:24*
%MOMM*%
%LPD*%
G01*
G04 APERTURE LIST*
G04 Aperture macros list*
%AMRoundRect*
0 Rectangle with rounded corners*
0 $1 Rounding radius*
0 $2 $3 $4 $5 $6 $7 $8 $9 X,Y pos of 4 corners*
0 Add a 4 corners polygon primitive as box body*
4,1,4,$2,$3,$4,$5,$6,$7,$8,$9,$2,$3,0*
0 Add four circle primitives for the rounded corners*
1,1,$1+$1,$2,$3*
1,1,$1+$1,$4,$5*
1,1,$1+$1,$6,$7*
1,1,$1+$1,$8,$9*
0 Add four rect primitives between the rounded corners*
20,1,$1+$1,$2,$3,$4,$5,0*
20,1,$1+$1,$4,$5,$6,$7,0*
20,1,$1+$1,$6,$7,$8,$9,0*
20,1,$1+$1,$8,$9,$2,$3,0*%
G04 Aperture macros list end*
%TA.AperFunction,ComponentPad*%
%ADD10RoundRect,0.250000X-0.600000X-0.725000X0.600000X-0.725000X0.600000X0.725000X-0.600000X0.725000X0*%
%TD*%
%TA.AperFunction,ComponentPad*%
%ADD11O,1.700000X1.950000*%
%TD*%
%TA.AperFunction,ComponentPad*%
%ADD12RoundRect,1.500000X-1.500000X-1.500000X1.500000X-1.500000X1.500000X1.500000X-1.500000X1.500000X0*%
%TD*%
%TA.AperFunction,ComponentPad*%
%ADD13C,6.000000*%
%TD*%
%TA.AperFunction,ComponentPad*%
%ADD14R,3.800000X3.800000*%
%TD*%
%TA.AperFunction,ComponentPad*%
%ADD15C,4.000000*%
%TD*%
%TA.AperFunction,ViaPad*%
%ADD16C,1.000000*%
%TD*%
%TA.AperFunction,Conductor*%
%ADD17C,1.000000*%
%TD*%
%TA.AperFunction,Conductor*%
%ADD18C,4.000000*%
%TD*%
G04 APERTURE END LIST*
D10*
%TO.P,J2,1,Pin_1*%
%TO.N,Net-(J1-Pad1)*%
X154552000Y-116700000D03*
D11*
%TO.P,J2,2,Pin_2*%
%TO.N,Net-(J1-Pad2)*%
X157052000Y-116700000D03*
%TO.P,J2,3,Pin_3*%
%TO.N,Net-(J1-Pad3)*%
X159552000Y-116700000D03*
%TD*%
D10*
%TO.P,J3,1,Pin_1*%
%TO.N,Net-(J1-Pad1)*%
X97750000Y-64397400D03*
D11*
%TO.P,J3,2,Pin_2*%
%TO.N,Net-(J1-Pad2)*%
X100250000Y-64397400D03*
%TO.P,J3,3,Pin_3*%
%TO.N,Net-(J1-Pad3)*%
X102750000Y-64397400D03*
%TD*%
D12*
%TO.P,J15,1,Pin_1*%
%TO.N,Net-(J12-Pad1)*%
X136106400Y-94650000D03*
D13*
%TO.P,J15,2,Pin_2*%
%TO.N,Net-(J12-Pad2)*%
X143306400Y-94650000D03*
%TD*%
D12*
%TO.P,J25,1,Pin_1*%
%TO.N,Net-(J12-Pad1)*%
X118950000Y-68175000D03*
D13*
%TO.P,J25,2,Pin_2*%
%TO.N,Net-(J12-Pad2)*%
X126150000Y-68175000D03*
%TD*%
D10*
%TO.P,J30,1,Pin_1*%
%TO.N,Net-(J1-Pad1)*%
X154552000Y-97750000D03*
D11*
%TO.P,J30,2,Pin_2*%
%TO.N,Net-(J1-Pad2)*%
X157052000Y-97750000D03*
%TO.P,J30,3,Pin_3*%
%TO.N,Net-(J1-Pad3)*%
X159552000Y-97750000D03*
%TO.P,J30,4,Pin_4*%
%TO.N,Net-(J1-Pad4)*%
X162052000Y-97750000D03*
%TO.P,J30,5,Pin_5*%
%TO.N,Net-(J1-Pad5)*%
X164552000Y-97750000D03*
%TD*%
D10*
%TO.P,J22,1,Pin_1*%
%TO.N,Net-(J1-Pad1)*%
X154552000Y-130950000D03*
D11*
%TO.P,J22,2,Pin_2*%
%TO.N,Net-(J1-Pad2)*%
X157052000Y-130950000D03*
%TO.P,J22,3,Pin_3*%
%TO.N,Net-(J1-Pad3)*%
X159552000Y-130950000D03*
%TO.P,J22,4,Pin_4*%
%TO.N,Net-(J1-Pad4)*%
X162052000Y-130950000D03*
%TO.P,J22,5,Pin_5*%
%TO.N,Net-(J1-Pad5)*%
X164552000Y-130950000D03*
%TO.P,J22,6,Pin_6*%
%TO.N,Net-(J1-Pad6)*%
X167052000Y-130950000D03*
%TO.P,J22,7,Pin_7*%
%TO.N,Net-(J1-Pad7)*%
X169552000Y-130950000D03*
%TD*%
D10*
%TO.P,J31,1,Pin_1*%
%TO.N,Net-(J1-Pad1)*%
X97750000Y-104800000D03*
D11*
%TO.P,J31,2,Pin_2*%
%TO.N,Net-(J1-Pad2)*%
X100250000Y-104800000D03*
%TO.P,J31,3,Pin_3*%
%TO.N,Net-(J1-Pad3)*%
X102750000Y-104800000D03*
%TO.P,J31,4,Pin_4*%
%TO.N,Net-(J1-Pad4)*%
X105250000Y-104800000D03*
%TO.P,J31,5,Pin_5*%
%TO.N,Net-(J1-Pad5)*%
X107750000Y-104800000D03*
%TO.P,J31,6,Pin_6*%
%TO.N,Net-(J1-Pad6)*%
X110250000Y-104800000D03*
%TO.P,J31,7,Pin_7*%
%TO.N,Net-(J1-Pad7)*%
X112750000Y-104800000D03*
%TD*%
D14*
%TO.P,J8,1,Pin_1*%
%TO.N,Net-(J12-Pad1)*%
X139219800Y-77625000D03*
D15*
%TO.P,J8,2,Pin_2*%
%TO.N,Net-(J12-Pad2)*%
X144219800Y-77625000D03*
%TD*%
D10*
%TO.P,J26,1,Pin_1*%
%TO.N,Net-(J1-Pad1)*%
X97750000Y-116700000D03*
D11*
%TO.P,J26,2,Pin_2*%
%TO.N,Net-(J1-Pad2)*%
X100250000Y-116700000D03*
%TO.P,J26,3,Pin_3*%
%TO.N,Net-(J1-Pad3)*%
X102750000Y-116700000D03*
%TD*%
D12*
%TO.P,J9,1,Pin_1*%
%TO.N,Net-(J12-Pad1)*%
X136170800Y-120250000D03*
D13*
%TO.P,J9,2,Pin_2*%
%TO.N,Net-(J12-Pad2)*%
X143370800Y-120250000D03*
%TD*%
D12*
%TO.P,J28,1,Pin_1*%
%TO.N,Net-(J12-Pad1)*%
X128850000Y-56125000D03*
D13*
%TO.P,J28,2,Pin_2*%
%TO.N,Net-(J12-Pad2)*%
X136050000Y-56125000D03*
%TD*%
D12*
%TO.P,J19,1,Pin_1*%
%TO.N,Net-(J12-Pad1)*%
X135469800Y-68175000D03*
D13*
%TO.P,J19,2,Pin_2*%
%TO.N,Net-(J12-Pad2)*%
X142669800Y-68175000D03*
%TD*%
D10*
%TO.P,J27,1,Pin_1*%
%TO.N,Net-(J1-Pad1)*%
X97750000Y-90700000D03*
D11*
%TO.P,J27,2,Pin_2*%
%TO.N,Net-(J1-Pad2)*%
X100250000Y-90700000D03*
%TO.P,J27,3,Pin_3*%
%TO.N,Net-(J1-Pad3)*%
X102750000Y-90700000D03*
%TD*%
D14*
%TO.P,J18,1,Pin_1*%
%TO.N,Net-(J12-Pad1)*%
X122700000Y-77625000D03*
D15*
%TO.P,J18,2,Pin_2*%
%TO.N,Net-(J12-Pad2)*%
X127700000Y-77625000D03*
%TD*%
D10*
%TO.P,J23,1,Pin_1*%
%TO.N,Net-(J1-Pad1)*%
X154552000Y-78773800D03*
D11*
%TO.P,J23,2,Pin_2*%
%TO.N,Net-(J1-Pad2)*%
X157052000Y-78773800D03*
%TO.P,J23,3,Pin_3*%
%TO.N,Net-(J1-Pad3)*%
X159552000Y-78773800D03*
%TO.P,J23,4,Pin_4*%
%TO.N,Net-(J1-Pad4)*%
X162052000Y-78773800D03*
%TO.P,J23,5,Pin_5*%
%TO.N,Net-(J1-Pad5)*%
X164552000Y-78773800D03*
%TO.P,J23,6,Pin_6*%
%TO.N,Net-(J1-Pad6)*%
X167052000Y-78773800D03*
%TO.P,J23,7,Pin_7*%
%TO.N,Net-(J1-Pad7)*%
X169552000Y-78773800D03*
%TD*%
D10*
%TO.P,J16,1,Pin_1*%
%TO.N,Net-(J1-Pad1)*%
X154552000Y-71636400D03*
D11*
%TO.P,J16,2,Pin_2*%
%TO.N,Net-(J1-Pad2)*%
X157052000Y-71636400D03*
%TO.P,J16,3,Pin_3*%
%TO.N,Net-(J1-Pad3)*%
X159552000Y-71636400D03*
%TO.P,J16,4,Pin_4*%
%TO.N,Net-(J1-Pad4)*%
X162052000Y-71636400D03*
%TO.P,J16,5,Pin_5*%
%TO.N,Net-(J1-Pad5)*%
X164552000Y-71636400D03*
%TD*%
D10*
%TO.P,J4,1,Pin_1*%
%TO.N,Net-(J1-Pad1)*%
X154552000Y-123825000D03*
D11*
%TO.P,J4,2,Pin_2*%
%TO.N,Net-(J1-Pad2)*%
X157052000Y-123825000D03*
%TO.P,J4,3,Pin_3*%
%TO.N,Net-(J1-Pad3)*%
X159552000Y-123825000D03*
%TO.P,J4,4,Pin_4*%
%TO.N,Net-(J1-Pad4)*%
X162052000Y-123825000D03*
%TO.P,J4,5,Pin_5*%
%TO.N,Net-(J1-Pad5)*%
X164552000Y-123825000D03*
%TD*%
D10*
%TO.P,J32,1,Pin_1*%
%TO.N,Net-(J1-Pad1)*%
X154552000Y-104800000D03*
D11*
%TO.P,J32,2,Pin_2*%
%TO.N,Net-(J1-Pad2)*%
X157052000Y-104800000D03*
%TO.P,J32,3,Pin_3*%
%TO.N,Net-(J1-Pad3)*%
X159552000Y-104800000D03*
%TO.P,J32,4,Pin_4*%
%TO.N,Net-(J1-Pad4)*%
X162052000Y-104800000D03*
%TO.P,J32,5,Pin_5*%
%TO.N,Net-(J1-Pad5)*%
X164552000Y-104800000D03*
%TO.P,J32,6,Pin_6*%
%TO.N,Net-(J1-Pad6)*%
X167052000Y-104800000D03*
%TO.P,J32,7,Pin_7*%
%TO.N,Net-(J1-Pad7)*%
X169552000Y-104800000D03*
%TD*%
D12*
%TO.P,J21,1,Pin_1*%
%TO.N,Net-(J12-Pad1)*%
X118950000Y-94650000D03*
D13*
%TO.P,J21,2,Pin_2*%
%TO.N,Net-(J12-Pad2)*%
X126150000Y-94650000D03*
%TD*%
D10*
%TO.P,J1,1,Pin_1*%
%TO.N,Net-(J1-Pad1)*%
X99175000Y-54150000D03*
D11*
%TO.P,J1,2,Pin_2*%
%TO.N,Net-(J1-Pad2)*%
X101675000Y-54150000D03*
%TO.P,J1,3,Pin_3*%
%TO.N,Net-(J1-Pad3)*%
X104175000Y-54150000D03*
%TO.P,J1,4,Pin_4*%
%TO.N,Net-(J1-Pad4)*%
X106675000Y-54150000D03*
%TO.P,J1,5,Pin_5*%
%TO.N,Net-(J1-Pad5)*%
X109175000Y-54150000D03*
%TO.P,J1,6,Pin_6*%
%TO.N,Net-(J1-Pad6)*%
X111675000Y-54150000D03*
%TO.P,J1,7,Pin_7*%
%TO.N,Net-(J1-Pad7)*%
X114175000Y-54150000D03*
%TD*%
D12*
%TO.P,J13,1,Pin_1*%
%TO.N,Net-(J12-Pad1)*%
X118950000Y-120250000D03*
D13*
%TO.P,J13,2,Pin_2*%
%TO.N,Net-(J12-Pad2)*%
X126150000Y-120250000D03*
%TD*%
D14*
%TO.P,J20,1,Pin_1*%
%TO.N,Net-(J12-Pad1)*%
X139856400Y-104843600D03*
D15*
%TO.P,J20,2,Pin_2*%
%TO.N,Net-(J12-Pad2)*%
X144856400Y-104843600D03*
%TD*%
D14*
%TO.P,J12,1,Pin_1*%
%TO.N,Net-(J12-Pad1)*%
X122700000Y-130250000D03*
D15*
%TO.P,J12,2,Pin_2*%
%TO.N,Net-(J12-Pad2)*%
X127700000Y-130250000D03*
%TD*%
D10*
%TO.P,J29,1,Pin_1*%
%TO.N,Net-(J1-Pad1)*%
X97750000Y-123825000D03*
D11*
%TO.P,J29,2,Pin_2*%
%TO.N,Net-(J1-Pad2)*%
X100250000Y-123825000D03*
%TO.P,J29,3,Pin_3*%
%TO.N,Net-(J1-Pad3)*%
X102750000Y-123825000D03*
%TO.P,J29,4,Pin_4*%
%TO.N,Net-(J1-Pad4)*%
X105250000Y-123825000D03*
%TO.P,J29,5,Pin_5*%
%TO.N,Net-(J1-Pad5)*%
X107750000Y-123825000D03*
%TD*%
D14*
%TO.P,J14,1,Pin_1*%
%TO.N,Net-(J12-Pad1)*%
X122700000Y-104843600D03*
D15*
%TO.P,J14,2,Pin_2*%
%TO.N,Net-(J12-Pad2)*%
X127700000Y-104843600D03*
%TD*%
D10*
%TO.P,J17,1,Pin_1*%
%TO.N,Net-(J1-Pad1)*%
X97750000Y-97750000D03*
D11*
%TO.P,J17,2,Pin_2*%
%TO.N,Net-(J1-Pad2)*%
X100250000Y-97750000D03*
%TO.P,J17,3,Pin_3*%
%TO.N,Net-(J1-Pad3)*%
X102750000Y-97750000D03*
%TO.P,J17,4,Pin_4*%
%TO.N,Net-(J1-Pad4)*%
X105250000Y-97750000D03*
%TO.P,J17,5,Pin_5*%
%TO.N,Net-(J1-Pad5)*%
X107750000Y-97750000D03*
%TD*%
D10*
%TO.P,J6,1,Pin_1*%
%TO.N,Net-(J1-Pad1)*%
X97750000Y-130950000D03*
D11*
%TO.P,J6,2,Pin_2*%
%TO.N,Net-(J1-Pad2)*%
X100250000Y-130950000D03*
%TO.P,J6,3,Pin_3*%
%TO.N,Net-(J1-Pad3)*%
X102750000Y-130950000D03*
%TO.P,J6,4,Pin_4*%
%TO.N,Net-(J1-Pad4)*%
X105250000Y-130950000D03*
%TO.P,J6,5,Pin_5*%
%TO.N,Net-(J1-Pad5)*%
X107750000Y-130950000D03*
%TO.P,J6,6,Pin_6*%
%TO.N,Net-(J1-Pad6)*%
X110250000Y-130950000D03*
%TO.P,J6,7,Pin_7*%
%TO.N,Net-(J1-Pad7)*%
X112750000Y-130950000D03*
%TD*%
D10*
%TO.P,J7,1,Pin_1*%
%TO.N,Net-(J1-Pad1)*%
X97750000Y-78773800D03*
D11*
%TO.P,J7,2,Pin_2*%
%TO.N,Net-(J1-Pad2)*%
X100250000Y-78773800D03*
%TO.P,J7,3,Pin_3*%
%TO.N,Net-(J1-Pad3)*%
X102750000Y-78773800D03*
%TO.P,J7,4,Pin_4*%
%TO.N,Net-(J1-Pad4)*%
X105250000Y-78773800D03*
%TO.P,J7,5,Pin_5*%
%TO.N,Net-(J1-Pad5)*%
X107750000Y-78773800D03*
%TO.P,J7,6,Pin_6*%
%TO.N,Net-(J1-Pad6)*%
X110250000Y-78773800D03*
%TO.P,J7,7,Pin_7*%
%TO.N,Net-(J1-Pad7)*%
X112750000Y-78773800D03*
%TD*%
D10*
%TO.P,J5,1,Pin_1*%
%TO.N,Net-(J1-Pad1)*%
X97750000Y-71636400D03*
D11*
%TO.P,J5,2,Pin_2*%
%TO.N,Net-(J1-Pad2)*%
X100250000Y-71636400D03*
%TO.P,J5,3,Pin_3*%
%TO.N,Net-(J1-Pad3)*%
X102750000Y-71636400D03*
%TO.P,J5,4,Pin_4*%
%TO.N,Net-(J1-Pad4)*%
X105250000Y-71636400D03*
%TO.P,J5,5,Pin_5*%
%TO.N,Net-(J1-Pad5)*%
X107750000Y-71636400D03*
%TD*%
D14*
%TO.P,J24,1,Pin_1*%
%TO.N,Net-(J12-Pad1)*%
X139920800Y-130250000D03*
D15*
%TO.P,J24,2,Pin_2*%
%TO.N,Net-(J12-Pad2)*%
X144920800Y-130250000D03*
%TD*%
D10*
%TO.P,J10,1,Pin_1*%
%TO.N,Net-(J1-Pad1)*%
X154552000Y-64397400D03*
D11*
%TO.P,J10,2,Pin_2*%
%TO.N,Net-(J1-Pad2)*%
X157052000Y-64397400D03*
%TO.P,J10,3,Pin_3*%
%TO.N,Net-(J1-Pad3)*%
X159552000Y-64397400D03*
%TD*%
D10*
%TO.P,J11,1,Pin_1*%
%TO.N,Net-(J1-Pad1)*%
X154552000Y-90700000D03*
D11*
%TO.P,J11,2,Pin_2*%
%TO.N,Net-(J1-Pad2)*%
X157052000Y-90700000D03*
%TO.P,J11,3,Pin_3*%
%TO.N,Net-(J1-Pad3)*%
X159552000Y-90700000D03*
%TD*%
D16*
%TO.N,Net-(J1-Pad1)*%
X150650000Y-52650000D03*
X99175000Y-51325000D03*
%TO.N,Net-(J1-Pad2)*%
X101575000Y-50025000D03*
X151850000Y-51450000D03*
%TO.N,Net-(J1-Pad3)*%
X153225000Y-50125000D03*
X103975000Y-48375000D03*
%TO.N,Net-(J1-Pad4)*%
X106550000Y-46975000D03*
X154500000Y-48925000D03*
%TO.N,Net-(J1-Pad5)*%
X108900000Y-45075000D03*
X155875000Y-47725000D03*
%TO.N,Net-(J1-Pad6)*%
X157075000Y-46525000D03*
X111675000Y-43500000D03*
%TO.N,Net-(J1-Pad7)*%
X114225000Y-42150000D03*
X158200000Y-45325000D03*
%TD*%
D17*
%TO.N,Net-(J1-Pad1)*%
X149375000Y-51375000D02*
X99225000Y-51375000D01*
X150650000Y-52650000D02*
X149375000Y-51375000D01*
X99225000Y-51375000D02*
X99175000Y-51325000D01*
%TO.N,Net-(J1-Pad2)*%
X101625000Y-50075000D02*
X101575000Y-50025000D01*
X150475000Y-50075000D02*
X101625000Y-50075000D01*
X151850000Y-51450000D02*
X150475000Y-50075000D01*
%TO.N,Net-(J1-Pad3)*%
X153225000Y-50125000D02*
X151475000Y-48375000D01*
X151475000Y-48375000D02*
X103975000Y-48375000D01*
%TO.N,Net-(J1-Pad4)*%
X152550000Y-46975000D02*
X106550000Y-46975000D01*
X154500000Y-48925000D02*
X152550000Y-46975000D01*
%TO.N,Net-(J1-Pad5)*%
X109125000Y-45300000D02*
X108900000Y-45075000D01*
X155875000Y-47725000D02*
X153450000Y-45300000D01*
X153450000Y-45300000D02*
X109125000Y-45300000D01*
%TO.N,Net-(J1-Pad6)*%
X111675000Y-43500000D02*
X154050000Y-43500000D01*
X154050000Y-43500000D02*
X157075000Y-46525000D01*
%TO.N,Net-(J1-Pad7)*%
X155025000Y-42150000D02*
X114225000Y-42150000D01*
X158200000Y-45325000D02*
X155025000Y-42150000D01*
D18*
%TO.N,Net-(J12-Pad2)*%
X126150000Y-68175000D02*
X136050000Y-58275000D01*
X136050000Y-58275000D02*
X136050000Y-56125000D01*
%TD*%
M02*
