M48
; DRILL file {KiCad (5.99.0-10650-gfdcc49d3ee)} date Fri Jun 18 14:28:43 2021
; FORMAT={-:-/ absolute / metric / decimal}
; #@! TF.CreationDate,2021-06-18T14:28:43+02:00
; #@! TF.GenerationSoftware,Kicad,Pcbnew,(5.99.0-10650-gfdcc49d3ee)
; #@! TF.FileFunction,NonPlated,1,2,NPTH
FMAT,2
METRIC
; #@! TA.AperFunction,NonPlated,NPTH,ComponentDrill
T1C1.200
; #@! TA.AperFunction,NonPlated,NPTH,ComponentDrill
T2C3.200
%
G90
G05
T1
X96.15Y-66.397
X96.15Y-73.636
X96.15Y-80.774
X96.15Y-92.7
X96.15Y-99.75
X96.15Y-106.8
X96.15Y-118.7
X96.15Y-125.825
X96.15Y-132.95
X97.575Y-56.15
X152.952Y-66.397
X152.952Y-73.636
X152.952Y-80.774
X152.952Y-92.7
X152.952Y-99.75
X152.952Y-106.8
X152.952Y-118.7
X152.952Y-125.825
X152.952Y-132.95
T2
X98.0Y-45.0
X98.0Y-139.0
X169.0Y-45.0
X169.0Y-139.0
T0
M30
