M48
; DRILL file {KiCad (5.99.0-10650-gfdcc49d3ee)} date Fri Jun 18 14:28:43 2021
; FORMAT={-:-/ absolute / metric / decimal}
; #@! TF.CreationDate,2021-06-18T14:28:43+02:00
; #@! TF.GenerationSoftware,Kicad,Pcbnew,(5.99.0-10650-gfdcc49d3ee)
; #@! TF.FileFunction,Plated,1,2,PTH
FMAT,2
METRIC
; #@! TA.AperFunction,Plated,PTH,ViaDrill
T1C0.800
; #@! TA.AperFunction,Plated,PTH,ComponentDrill
T2C0.950
; #@! TA.AperFunction,Plated,PTH,ComponentDrill
T3C2.700
; #@! TA.AperFunction,Plated,PTH,ComponentDrill
T4C4.500
%
G90
G05
T1
X99.175Y-51.325
X101.575Y-50.025
X103.975Y-48.375
X106.55Y-46.975
X108.9Y-45.075
X111.675Y-43.5
X114.225Y-42.15
X150.65Y-52.65
X151.85Y-51.45
X153.225Y-50.125
X154.5Y-48.925
X155.875Y-47.725
X157.075Y-46.525
X158.2Y-45.325
T2
X97.75Y-64.397
X97.75Y-71.636
X97.75Y-78.774
X97.75Y-90.7
X97.75Y-97.75
X97.75Y-104.8
X97.75Y-116.7
X97.75Y-123.825
X97.75Y-130.95
X99.175Y-54.15
X100.25Y-64.397
X100.25Y-71.636
X100.25Y-78.774
X100.25Y-90.7
X100.25Y-97.75
X100.25Y-104.8
X100.25Y-116.7
X100.25Y-123.825
X100.25Y-130.95
X101.675Y-54.15
X102.75Y-64.397
X102.75Y-71.636
X102.75Y-78.774
X102.75Y-90.7
X102.75Y-97.75
X102.75Y-104.8
X102.75Y-116.7
X102.75Y-123.825
X102.75Y-130.95
X104.175Y-54.15
X105.25Y-71.636
X105.25Y-78.774
X105.25Y-97.75
X105.25Y-104.8
X105.25Y-123.825
X105.25Y-130.95
X106.675Y-54.15
X107.75Y-71.636
X107.75Y-78.774
X107.75Y-97.75
X107.75Y-104.8
X107.75Y-123.825
X107.75Y-130.95
X109.175Y-54.15
X110.25Y-78.774
X110.25Y-104.8
X110.25Y-130.95
X111.675Y-54.15
X112.75Y-78.774
X112.75Y-104.8
X112.75Y-130.95
X114.175Y-54.15
X154.552Y-64.397
X154.552Y-71.636
X154.552Y-78.774
X154.552Y-90.7
X154.552Y-97.75
X154.552Y-104.8
X154.552Y-116.7
X154.552Y-123.825
X154.552Y-130.95
X157.052Y-64.397
X157.052Y-71.636
X157.052Y-78.774
X157.052Y-90.7
X157.052Y-97.75
X157.052Y-104.8
X157.052Y-116.7
X157.052Y-123.825
X157.052Y-130.95
X159.552Y-64.397
X159.552Y-71.636
X159.552Y-78.774
X159.552Y-90.7
X159.552Y-97.75
X159.552Y-104.8
X159.552Y-116.7
X159.552Y-123.825
X159.552Y-130.95
X162.052Y-71.636
X162.052Y-78.774
X162.052Y-97.75
X162.052Y-104.8
X162.052Y-123.825
X162.052Y-130.95
X164.552Y-71.636
X164.552Y-78.774
X164.552Y-97.75
X164.552Y-104.8
X164.552Y-123.825
X164.552Y-130.95
X167.052Y-78.774
X167.052Y-104.8
X167.052Y-130.95
X169.552Y-78.774
X169.552Y-104.8
X169.552Y-130.95
T3
X122.7Y-77.625
X122.7Y-104.844
X122.7Y-130.25
X127.7Y-77.625
X127.7Y-104.844
X127.7Y-130.25
X139.22Y-77.625
X139.856Y-104.844
X139.921Y-130.25
X144.22Y-77.625
X144.856Y-104.844
X144.921Y-130.25
T4
X118.95Y-68.175
X118.95Y-94.65
X118.95Y-120.25
X126.15Y-68.175
X126.15Y-94.65
X126.15Y-120.25
X128.85Y-56.125
X135.47Y-68.175
X136.05Y-56.125
X136.106Y-94.65
X136.171Y-120.25
X142.67Y-68.175
X143.306Y-94.65
X143.371Y-120.25
T0
M30
